<svg xmlns="http://www.w3.org/2000/svg" xmlns:xlink="http://www.w3.org/1999/xlink" width="29" height="24" viewBox="0 0 29 24"><defs><path id="a1npa" d="M1460.82 91.09c.65 0 1.18.52 1.18 1.16l-.04.31-3 10.75c-.28.97-1.2 1.69-2.28 1.69h-15.36c-1.09 0-2-.72-2.27-1.7l-3-10.74a.95.95 0 0 1-.05-.31c0-.64.53-1.16 1.18-1.16h5.66l5.18-7.6c.22-.33.6-.49.98-.49s.76.16.98.49l5.18 7.6zm-8.27 0l-3.55-5.1-3.55 5.1zm-1.19 6.95a2.35 2.35 0 0 0-2.36-2.31 2.35 2.35 0 0 0-2.36 2.31 2.35 2.35 0 0 0 2.36 2.32c1.3 0 2.36-1.04 2.36-2.32z"/></defs><g><g transform="translate(-1434 -82)"><use xlink:href="#a1npa"/></g></g></svg>