<svg xmlns="http://www.w3.org/2000/svg" xmlns:xlink="http://www.w3.org/1999/xlink" width="20" height="16" viewBox="0 0 20 16"><defs><path id="jzm0a" d="M1195.78 3448h-14.58c-.67 0-1.21-.57-1.21-1.27v-8.53l7.44 4.83c.58.5 1.53.5 2.12 0l7.44-4.83v8.53c0 .7-.54 1.27-1.21 1.27zm-7.82-6.33l-7.97-4.97v-.43c0-.7.54-1.27 1.21-1.27h14.58c.67 0 1.21.57 1.21 1.27v.43l-7.97 4.97a.85.85 0 0 1-1.06 0zm9.03-6.67v.03l-.04-.03zm-17 0h.03l-.03.03z"/></defs><g><g transform="translate(-1178 -3433)"><use fill="#d3d3da" xlink:href="#jzm0a"/></g></g></svg>