<svg xmlns="http://www.w3.org/2000/svg" xmlns:xlink="http://www.w3.org/1999/xlink" width="87" height="29" viewBox="0 0 87 29"><defs><path id="88fma" d="M682.53 3625.22l-2.6-2.12c.4-.56.8-1.1 1.18-1.6l-1.26-2.72v6.2c.01.44-.17.64-.6.64-.69 0-1.39-.02-2.09.02-.56.03-.76-.19-.76-.77.02-2.23 0-4.46 0-6.7 0-1.4-.61-2.11-1.8-2.14-1.32-.03-2.2.82-2.21 2.17-.02 1.89.01 3.78.02 5.67v1.6h-3.18c-.02-.13-.07-.27-.07-.4-.03-3.9-.05-7.8-.1-11.7-.01-.73.18-1.03.93-.97.76.06 1.53.01 2.36.01l.16 1.07a4.58 4.58 0 0 1 4.72-.62c1.72.7 2.47 2.12 2.73 3.94.09-.31.16-.63.26-.94a5.56 5.56 0 0 1 6.57-3.63c.8.2 1.67.15 2.5.18.89.02 1.78 0 2.8 0-.24.92-.41 1.77-.7 2.58-.07.19-.51.24-.8.36.56 3.6.55 3.67-.7 5.9.65 1.03 1.36 1.96 1.84 3 1.2 2.6.5 5.9-1.58 7.87-2.47 2.37-6.52 2.61-9.06.07-.65-.65-.66-.67-.05-1.33.4-.42.8-.84 1.16-1.3.34-.45.56-.43.96-.04 1.35 1.33 2.96 1.48 4.37.5 1.3-.9 1.67-2.2 1.42-3.66a3.23 3.23 0 0 0-2.55-2.69c-1.34-.34-2.5.14-3.44 1.17-.1.1-.19.22-.28.33-.01.02-.04.02-.15.05zm.67-7.36c0 1.2 1.06 2.32 2.23 2.34 1.16.02 2.25-1.11 2.24-2.33 0-1.2-1.02-2.25-2.2-2.28a2.33 2.33 0 0 0-2.27 2.27zm-35.99 8.42c-.67-1.47-1.35-2.93-2.01-4.4l-2.06-4.57-2 4.58-1.94 4.45h-.21l-6.98-17.3c1.22 0 2.34-.02 3.46.03.16 0 .37.34.47.56l3.13 7.3c.01.04.06.07.16.18l3.8-7.86 4.05 7.6c.82-1.99 1.58-3.79 2.3-5.6.87-2.21.85-2.22 3.17-2.22h1.38l-6.49 17.23-.23.02zm53.6-4.46c.81 1.19 1.97 1.13 3.09 1 1.17-.12 2.04-.86 2.84-1.9.46.86.9 1.58 1.23 2.34.08.18-.1.56-.28.75a5.84 5.84 0 0 1-3.92 1.76c-2.9.26-5.82-1.1-6.84-4.2-.94-2.85-.47-6.51 2.14-8.32 2.91-2.01 7.71-.99 9.31 2 .3.55.19.8-.26 1.13-2.32 1.65-4.62 3.33-6.92 5.01-.13.1-.23.25-.4.43zm3.37-5.87c-.73-.98-1.64-1.17-2.69-.63-1.4.73-2.22 2.4-1.8 3.84 1.5-1.08 2.98-2.13 4.5-3.2zm-38.9 9.23c-2.28.9-4.26.58-5.9-1.18a4.67 4.67 0 0 1-.53-5.12c1.06-2.01 2.83-2.55 6.42-1.94l.15-1.62h-5.09c.3-.94.5-1.73.8-2.5.06-.17.35-.35.55-.35 2.06-.04 4.13-.05 6.2-.02.16 0 .43.35.44.55.07 1.56.1 3.13.12 4.7.02 2.38-.01 4.76.01 7.13 0 .56-.19.75-.71.72-.5-.02-1.02.05-1.52-.01-.32-.04-.63-.23-.94-.36zm-1.89-2.47c.9-.01 1.8-.77 1.83-1.53.01-.8-.88-1.53-1.89-1.54-1-.01-1.92.77-1.9 1.6.03.78.96 1.47 1.96 1.47zm32.65-13.7v9.81c0 2.04-.01 4.07.02 6.1.01.6-.18.78-.74.75-.62-.05-1.26-.06-1.88 0-.69.07-.9-.17-.9-.88 0-3.4-.06-6.8-.08-10.2-.01-1.6.03-3.19-.02-4.78-.02-.67.2-.84.82-.8.86.04 1.72 0 2.78 0zm16.54 3.93c.84-.3 1.66-.64 2.5-.88.66-.2.88.01.89.7 0 .7.04 1.38-.02 2.06-.02.2-.3.42-.5.52-.69.3-1.43.48-2.08.85-.62.35-.88.98-.87 1.74.03 2.25 0 4.51.04 6.77 0 .51-.16.7-.66.66a13.2 13.2 0 0 0-1.88 0c-.63.06-.78-.21-.78-.8.01-3.43 0-6.87-.01-10.3 0-.49.02-.98-.01-1.47-.03-.46.17-.6.6-.6.6.02 1.2.06 1.8 0 .63-.07 1.05.04.98.75zm-56.1.22c.72-.3 1.4-.64 2.13-.86 1.04-.3 1.3-.06 1.29 1.01v.52c-.03.46.08 1.02-.14 1.36-.18.29-.75.32-1.15.46-1.5.51-2.37 1.24-2.3 3.14.08 2.2.02 4.4.02 6.67h-3.23v-2.97c-.03-3.1-.05-6.18-.11-9.27-.02-.65.2-.87.82-.83.6.04 1.2.05 1.8.01.6-.04.95.11.87.76zm42.38-2.89c0 .62-.49 1.12-1.1 1.11-.57 0-1.11-.55-1.11-1.12 0-.57.52-1.12 1.1-1.15.61-.02 1.1.48 1.1 1.16z"/></defs><g><g transform="translate(-631 -3607)"><use fill="#c6c7cd" xlink:href="#88fma"/></g></g></svg>