<svg xmlns="http://www.w3.org/2000/svg" xmlns:xlink="http://www.w3.org/1999/xlink" width="123" height="14" viewBox="0 0 123 14"><defs><path id="xnj6a" d="M1260.9 3623c-.4-.1-.78-.2-1.16-.33-1.4-.48-2.14-1.46-2.17-2.86a6.75 6.75 0 0 1 6.08-6.66c1.07-.12 2.21-.1 3.27.1 1.59.32 2.38 1.41 2.41 2.96.06 3.23-2.35 6-5.78 6.64-.19.04-.38.1-.57.16h-2.09zm1.7-1.93c.73.04 1.46-.2 2.03-.75a5.14 5.14 0 0 0 1.57-4.07c-.04-.84-.55-1.27-1.47-1.36a3.1 3.1 0 0 0-2.84 1.17 5.65 5.65 0 0 0-1.22 3.17c-.1 1.24.54 1.84 1.92 1.84zm32.7 1.94c-.5-.13-1-.22-1.47-.39-1.15-.4-1.67-1.33-1.37-2.46.04-.16.28-.37.45-.38.71-.04 1.43-.01 2.15-.01h.4c-.03.59-.05 1.18.7 1.38.84.22 1.68.18 2.36-.4.72-.61.54-1.31-.37-1.56-.93-.25-1.87-.44-2.78-.7-1.52-.43-2-1.4-1.42-2.78a4.05 4.05 0 0 1 2.6-2.24c1.58-.55 3.2-.6 4.82-.2 1.3.32 1.81 1.14 1.53 2.36-.04.16-.29.37-.45.38-.71.04-1.43.02-2.15.02l-.35-.02c-.03-.05-.07-.07-.08-.1-.02-.92-.2-1.14-.95-1.18-1.03-.05-1.85.43-1.96 1.14-.08.53.31.72.74.84.8.21 1.62.41 2.43.6 2.41.53 2.45 2.03 1.4 3.62-.8 1.2-2.1 1.67-3.51 1.92-.22.04-.43.1-.64.16h-2.09zm-86.74 0c-.22-.05-.43-.11-.65-.15-2.12-.31-3.06-1.4-2.94-3.43a6.84 6.84 0 0 1 4.98-6.08 8.84 8.84 0 0 1 4.24-.06c1.58.35 2.23 1.37 1.9 2.9h-2.95c-.3-1.15-.9-1.48-2.15-1.21a2.5 2.5 0 0 0-1.74 1.19c-.47.89-.87 1.83-1.15 2.78-.28.99.1 1.77.81 2.05.9.37 2.26.09 2.75-.7.3-.5.67-.57 1.2-.55.7.03 1.42 0 2.2 0-.15.76-.56 1.32-1.1 1.8a6.02 6.02 0 0 1-3.33 1.33c-.24.03-.48.08-.72.13h-1.35zm41.15 0c-.36-.12-.73-.21-1.09-.35-.88-.35-1.25-.91-1.23-1.8v-.18c.13-1.7.26-1.83 2.02-1.83h1.36c-.13.52-.3.96-.35 1.41-.1.68.21.92.94.81.88-.12 1.19-.75 1.4-1.44.43-1.4.85-2.83 1.27-4.24l.3-1c.35-1.13.35-1.13 1.61-1.13h1.73l-.77 2.63-1.13 3.74c-.54 1.83-1.81 2.88-3.76 3.23-.16.03-.3.1-.45.15h-1.85zm-66.7-2.56c.11-.4.2-.82.37-1.21.07-.16.3-.36.48-.37.72-.04 1.43-.02 2.15-.01.12 0 .24 0 .4.02-.12.44-.28.85-.34 1.28-.12.8.24 1.08 1.07.9.77-.18 1.06-.74 1.25-1.38l1.27-4.24c.17-.6.32-1.2.54-1.78.06-.16.3-.37.47-.38.86-.04 1.72-.02 2.64-.02-.26.92-.51 1.8-.77 2.66-.36 1.2-.73 2.41-1.08 3.62-.55 1.87-1.82 2.97-3.83 3.33-.15.03-.3.1-.45.14h-1.84c-.95-.27-1.88-.56-2.34-1.51v-1.05zm53.86 2.51c-2.09-.06-4.17-.12-6.26-.2-.95-.04-1.05-.14-.8-1.02.7-2.46 1.45-4.91 2.18-7.37.22-.74.65-1.12 1.56-1.16 4.15-.2 8.3-.24 12.44.03.98.06 1.06.15.82 1.07a180 180 0 0 1-1.52 5.43c-.2.69-.53 1.35-.73 2.03-.21.71-.69.98-1.43 1-1.68.03-3.36.1-5.03.14h-1.23v.05zm7.83-6.44c-.07-.04-.1-.07-.14-.07-3.46 0-6.92-.02-10.38.03a2 2 0 0 0-1.36.63c-.46.59-.7 1.32-1.09 2.1 1.17 0 2.2-.03 3.2.01.54.02.85-.1.99-.61.21-.81.82-1.08 1.66-1.08 1.94.02 3.89 0 5.83 0 1 0 1 0 1.29-1.01zm-.6 1.3c-1.02 0-2.03 0-3.04.02-.11 0-.27.18-.32.3-.14.4-.44.5-.85.5-1.08-.02-2.17 0-3.25-.01-.4 0-.63.1-.59.58h6.43c1.23 0 1.37-.12 1.63-1.38zm32.26-4.56c.5 2.35 1 4.62 1.5 6.88l.14.02 2.05-6.87h2.59l-2.84 9.46h-4.05l-1.48-7.13-.13-.02-.47 1.5c-.51 1.73-1.03 3.46-1.52 5.2-.1.35-.25.5-.67.48-.67-.03-1.34 0-2.1 0l1.28-4.29c.47-1.58.97-3.16 1.42-4.75.1-.36.26-.5.66-.48 1.19.02 2.38 0 3.62 0zm-74.27 0l1.43 9.47h-3.35l-.2-1.85c-1.42 0-2.8-.01-4.19.02-.15 0-.36.19-.43.33-.57 1.4-1.67 1.8-3.14 1.55-.24-.04-.49 0-.86 0l.35-.52c2.14-2.85 4.29-5.7 6.42-8.57.24-.32.49-.45.9-.43 1 .02 2 0 3.07 0zm-2.28 5.84l-.2-3.87-.14-.03-2.64 3.9h2.98zm85.68 1.86h5.28l-.53 1.78h-8.26l1-3.33c.57-1.87 1.14-3.75 1.68-5.63.11-.39.28-.52.72-.51 2.33.02 4.66 0 7 0 .15 0 .32.02.56.04-.16.53-.28 1.04-.47 1.51-.05.13-.34.25-.51.25-1.56.02-3.11 0-4.72 0l-.61 2.01h4.86c-.16.57-.27 1.07-.46 1.55-.05.13-.33.26-.5.26-1.3.02-2.58.04-3.87 0-.47-.01-.65.15-.75.55-.1.48-.26.96-.42 1.52zm-56.14-7.68l-3.6 3.04c-.42.34-1.05.66-1.14 1.08-.1.42.34.95.56 1.43l1.77 3.84h-2.38c-1.31 0-1.31 0-1.76-1.17-.47-1.23-.93-2.47-1.42-3.7-.13-.32-.08-.51.2-.74 1.38-1.2 2.74-2.43 4.13-3.64.15-.13.38-.24.58-.25 1-.02 2 0 3 0l.06.11zm-7.5-.12l-2.85 9.48h-3l.82-2.82c.6-2.03 1.23-4.06 1.82-6.09.12-.4.28-.61.78-.58.78.05 1.55.01 2.43.01z"/></defs><g><g transform="translate(-1182 -3611)"><use fill="#c6c7cd" xlink:href="#xnj6a"/></g></g></svg>