<svg xmlns="http://www.w3.org/2000/svg" xmlns:xlink="http://www.w3.org/1999/xlink" width="94" height="25" viewBox="0 0 94 25"><defs><path id="y6lia" d="M516.6 3628.97l-.48-.04-.31-.02v-2.09l.62.02c.71.03 1.06-.01 1.51-.17a3.1 3.1 0 0 0 1.75-1.58c.17-.34.41-.97.47-1.26l.03-.12-.26.02-1.09.03-.83.03-.3-.62a1036.15 1036.15 0 0 0-3.6-7.27c-1.43-2.89-1.88-3.64-1.88-3.68 0-.02.9-.04 2.3-.04h2.29l.43.99c1.12 2.53 1.94 4.2 2.36 5.14l.73 1.65c.48 1.16.86 2 .9 2.01.01 0 .19-.5.39-1.14l.6-1.84 1.59-4.56c.28-.82.58-1.51.66-1.74l.15-.41 2.19-.01h2.2l-.44 1.16c-.24.62-.63 1.49-.87 2.13l-1.21 3.18-.98 2.59c-1.54 4.1-1.67 4.4-2.15 5.17-1.06 1.68-2.27 2.3-4.88 2.45-.56.04-1.48.04-1.88.02zm-71.43-5.06a16.4 16.4 0 0 1-4.06-.57 2.79 2.79 0 0 1-2.08-2.53 3.35 3.35 0 0 1-.02-.59l.03-.18h4.44l-.06.22c-.11.42-.05.73.18 1 .46.5 1.58.76 3.39.76 1.83 0 3.06-.25 3.64-.73.36-.31.47-.85.25-1.33-.18-.39-.53-.63-1.14-.79a7 7 0 0 0-1.56-.11c-3.69-.1-4.87-.18-6.14-.43-1.01-.2-1.54-.44-2.02-.92a2.07 2.07 0 0 1-.49-.63c-.28-.55-.33-.8-.33-1.67a3 3 0 0 1 .31-1.61c.18-.34.66-.82 1-1.01.7-.38 1.75-.6 3.55-.76.94-.08 4.96-.1 5.87-.02 1.7.14 2.7.35 3.39.7.6.3 1.08.9 1.25 1.57.06.24.14.75.14.95v.12h-4.22l-.06-.3c-.13-.6-.36-.88-.78-1a7.9 7.9 0 0 0-2.14-.18c-1.35-.03-1.91 0-2.51.13-.53.12-.88.28-1.14.53-.26.24-.32.4-.32.81.01.58.22.92.63 1.04.4.11 1.65.2 3.88.28 3.38.13 5.27.4 6.13.9.35.2.68.57.86.95.26.52.3.72.3 1.6 0 .87-.05 1.12-.31 1.62-.72 1.4-2.33 1.98-6.1 2.17-.66.03-3.03.04-3.76 0zm27.8-.02c-3.77-.2-5.2-.82-5.68-2.47-.06-.2-.1-.43-.1-.83l-.03-.55h2.23c1.23 0 2.24 0 2.24.02l-.07.25c-.23.9.43 1.42 2.08 1.64.55.08 2.63.07 3.22-.01 1.2-.17 1.95-.5 2.19-1 .13-.26.12-.7-.02-.99-.19-.38-.53-.62-1.15-.78a6.97 6.97 0 0 0-1.55-.11 49.45 49.45 0 0 1-5.2-.28c-1.78-.24-2.67-.6-3.22-1.34a3.04 3.04 0 0 1-.57-1.85c-.05-1.27.28-2.08 1.12-2.66.67-.48 1.82-.74 3.93-.91.8-.07 4.03-.1 5-.04 3.29.17 4.58.63 5.16 1.82.15.32.26.77.29 1.2l.02.35h-2.1l-2.1-.02-.1-.35c-.24-1-.57-1.1-3.2-1.1-1.26 0-1.53 0-1.89.06-.73.12-1.27.35-1.53.64-.2.21-.25.42-.23.82.03.58.2.87.61.98.4.11 1.66.2 3.87.28 3.47.13 5.38.42 6.2.94.35.23.6.5.79.88.2.4.27.65.32 1.2.08.8-.05 1.58-.39 2.2-.17.32-.7.84-1.04 1.04-.88.5-2.14.77-4.28.94-.67.05-4.03.08-4.81.03zm28.57.02c-2.4-.13-3.8-.38-4.82-.87a2.83 2.83 0 0 1-1.4-1.37 6.6 6.6 0 0 1-.66-2.27c-.1-.68-.1-2.54 0-3.16.2-1.32.63-2.25 1.3-2.86.33-.3.57-.45 1.05-.65.81-.35 1.93-.58 3.54-.72.75-.07 4.04-.07 4.77 0 1.99.18 3.3.53 4.05 1.07.77.56 1.27 1.5 1.5 2.82.06.37.13 1.6.14 2.42v.14H499l-.03.14c-.04.24.02 1.17.1 1.5.14.57.4.97.8 1.22.6.37 2.08.55 3.96.48 1.93-.08 2.49-.28 2.74-1 .05-.12.1-.35.1-.51l.02-.3h4.34l-.03.43c-.04.72-.14 1.06-.43 1.48-.72 1.05-2.33 1.68-4.99 1.94-.56.06-3.38.1-4.03.07zm5.16-7.72c-.06-1.3-.4-1.75-1.46-1.96a16.1 16.1 0 0 0-4.24-.08c-.72.11-1.23.3-1.46.57-.29.32-.47.88-.5 1.56l-.03.42h7.71zm-47.53-3.93h4.4v11.52h-4.4zm27.8-5.26h4.46v16.78h-4.45zm-27.8 0h4.4v2.58h-4.4z"/></defs><g><g transform="translate(-437 -3605)"><use fill="#c6c7cd" xlink:href="#y6lia"/></g></g></svg>