<svg xmlns="http://www.w3.org/2000/svg" xmlns:xlink="http://www.w3.org/1999/xlink" width="112" height="17" viewBox="0 0 112 17"><defs><path id="sd87a" d="M843.28 3612.05l.53-.03h5.16c.79 0 1.57.12 2.3.4a5.12 5.12 0 0 1 3.26 3.51c.52 1.72.5 3.45-.04 5.16-.75 2.4-2.59 3.77-5.27 3.86-1.9.07-3.81.02-5.72.01-.06 0-.12-.02-.22-.04v-12.87zm2.9 2.35c-.14.93-.1 7.71.04 8.18h2.52c1.55-.02 2.66-.83 3.05-2.28.34-1.26.3-2.53-.1-3.77a2.86 2.86 0 0 0-2.28-2c-1.07-.23-2.14-.09-3.24-.13zm-17.9 4.47c1.49.57 1.74 1.8 1.86 3.08.05.5.05 1.02.11 1.52.07.47.2.94.3 1.46h-2.72c-.3-.56-.28-1.2-.36-1.81-.06-.46-.08-.93-.15-1.39-.19-1.28-.8-1.8-2.12-1.83-.82-.02-1.65 0-2.48 0-.14 0-.28.02-.5.04v5h-2.82v-12.87c.15-.02.3-.05.46-.05h6.58c.4 0 .8.05 1.17.15 2.96.8 3.18 3.9 2.14 5.46-.24.36-.64.63-.97.92-.13.12-.3.2-.5.32zm-6.02-4.69v3.7c1.32-.02 2.6.08 3.87-.07.56-.07 1.02-.4 1.16-.97.1-.4.14-.84.08-1.25-.1-.78-.54-1.24-1.33-1.3-1.24-.08-2.48-.07-3.78-.1zm80.94 4.68c1.34.51 1.72 1.56 1.83 2.77.05.49.05.97.11 1.46.08.6.2 1.19.32 1.85-.4.07-.85.02-1.29.03h-1.37c-.31-.52-.3-1.07-.37-1.6-.09-.67-.12-1.34-.26-1.99-.2-.95-.74-1.41-1.72-1.46-1.05-.05-2.11-.01-3.25-.01-.06.83-.02 1.66-.03 2.48v2.56c-.96.03-1.88.02-2.84.02v-12.92c.2 0 .38-.03.56-.03h6.4c.44.01.88.06 1.3.17 2.82.77 3.17 3.77 2.1 5.43-.24.36-.63.63-.97.93-.13.11-.3.19-.52.31zm-6-.98h2.3c.48 0 .96 0 1.43-.05.82-.1 1.28-.59 1.39-1.4.18-1.42-.43-2.14-1.9-2.21h-2.72c-.16 0-.32.02-.53.05v3l.03.6zm-4.3 7.07h-2.7c-.26-.49-.27-1.02-.34-1.54-.08-.68-.12-1.37-.26-2.04-.2-.94-.74-1.4-1.73-1.45-1.05-.05-2.1-.01-3.19-.01-.15.55-.06 1.1-.07 1.63-.02.57 0 1.13 0 1.7v1.62c-.5.14-2.19.15-2.84.03v-12.81c.15-.02.28-.06.42-.06 2.21 0 4.43-.02 6.64.01.57.01 1.16.14 1.7.34a3.4 3.4 0 0 1 2.14 3.45c-.08 1.27-.58 2.3-1.82 2.9-.05.02-.1.07-.14.1.02.04.03.09.05.1 1.18.46 1.55 1.44 1.7 2.56.06.58.06 1.17.13 1.75.07.56.2 1.1.32 1.72zm-8.26-7.12l.26.04h2.04c.46 0 .91.02 1.36-.03.88-.1 1.37-.6 1.46-1.46.14-1.42-.45-2.09-1.9-2.16h-2.79c-.14 0-.28.03-.43.05v3.56zm-4.9-.61v2.16h-6.33v3.2h7.04v2.29c-.46.12-8.86.17-9.86.06-.13-.43-.16-12.1-.03-12.87h9.73c.06.76.03 1.51.02 2.33h-6.9v2.83h6.32zm-44.83-2.82v2.79c2.1.05 4.17 0 6.3.03v2.16h-6.2c-.15.46-.19 2.2-.07 3.19l2.32.01H841.95v2.36h-9.82c-.14-.46-.16-12.21-.03-12.89h9.7v2.35h-6.89zm26.58 5.92v4.62h-2.8v-12.9l.57-.02c1.77 0 3.53-.02 5.29.01.57 0 1.16.08 1.71.23a3.62 3.62 0 0 1 2.8 3.2c.07.54.06 1.1-.04 1.64a3.76 3.76 0 0 1-3.6 3.15c-1.02.08-2.06.05-3.1.07h-.83zm.04-2.28c.6.1 2.8.1 3.27 0 .54-.11 1.02-.32 1.3-.83.74-1.33 0-2.78-1.53-2.92-.94-.09-1.9-.05-2.85-.06-.05 0-.11.05-.19.08v3.73zm-43.35-5.98v2.34h-6.3v3.01h5.43v2.2h-5.46v5.32h-2.86v-12.87h9.2zm94.95 12.89h-2.83c-.01-.23-.04-.44-.04-.65v-3.9c.01-.33-.08-.62-.25-.9l-4.2-6.82-.38-.66h2.2c1.24.02.89-.2 1.53.84l2.21 3.66.37.57c.13-.19.24-.32.33-.47.83-1.38 1.67-2.75 2.47-4.15.2-.34.42-.48.83-.46.84.03 1.68 0 2.62 0-.14.27-.23.45-.33.61-1.34 2.2-2.67 4.39-4.03 6.56-.35.56-.54 1.1-.51 1.77.04 1.1.01 2.22.01 3.34v.66z"/></defs><g><g transform="translate(-807 -3610)"><use fill="#c6c7cd" xlink:href="#sd87a"/></g></g></svg>