<svg xmlns="http://www.w3.org/2000/svg" xmlns:xlink="http://www.w3.org/1999/xlink" width="94" height="19" viewBox="0 0 94 19"><defs><path id="2y49a" d="M1439.44 3617.95a6.83 6.83 0 0 1-5.99 6.8c-4.04.62-7.56-1.93-8.06-5.83a6.88 6.88 0 0 1 1.41-5.38c3.23-4.02 9.95-3.13 12.05 1.58.4.9.6 1.85.59 2.83zm-3.42-.19c-.02-.18-.05-.53-.12-.88a3.49 3.49 0 0 0-2.78-2.72 3.65 3.65 0 0 0-3.77 1.6c-.97 1.5-.77 3.6.45 4.92a3.53 3.53 0 0 0 5.3-.11c.64-.77.9-1.66.92-2.8zm32.22 6.93v-13.55h9.76c0 .77.03 1.51-.01 2.25-.04.5-.45.81-1.08.83-1.3.04-2.59.04-3.88.05h-1.2v1.94h5.08v3.14h-5.1v2.26h6.19c0 .73.05 1.42-.02 2.1-.05.5-.47.78-.97.92-.2.05-.4.08-.6.08h-7.88c-.1 0-.19 0-.3-.02zm-65.58-13.57c1.28 0 2.54-.02 3.8 0 .61.01 1.03.32 1.22.9l4.12 12.42.06.27h-2.6c-.8 0-.8 0-1.05-.72-.24-.7-.5-1.39-.72-2.1-.07-.2-.16-.26-.38-.26h-4.68c-.23 0-.3.08-.38.27-.2.56-.4 1.1-.62 1.66-.34.9-.71 1.15-1.7 1.15h-2.28c1.75-4.56 3.48-9.07 5.2-13.6zm2.12 3.2l-1.72 4.5h3.5l-1.78-4.5zm42.45-3.24c1.54 0 3.01.24 4.39.93.54.28.55.28.34.84-.12.33-.26.65-.42.96-.35.68-.8.81-1.57.59-.7-.2-1.43-.39-2.16-.48-.52-.06-1.07.05-1.6.1-.16.02-.32.09-.47.16-.33.15-.6.37-.61.75-.02.36.22.61.54.74.72.3 1.46.59 2.2.83 1.01.32 2.04.6 2.97 1.12 2.77 1.56 2.5 4.78.03 6.27a7.72 7.72 0 0 1-4.45.95 8.65 8.65 0 0 1-5.15-1.88c-.17-.13-.23-.22-.1-.42.27-.4.5-.84.79-1.23.5-.66 1.03-.76 1.77-.34 1.15.64 2.39.94 3.71.9.39 0 .79-.09 1.15-.23.53-.2.7-.67.36-1.12-.2-.29-.52-.56-.86-.7-.75-.3-1.55-.53-2.34-.76-.94-.27-1.85-.58-2.7-1.08-2.26-1.35-2.03-3.67-.7-5.13.9-1 2.1-1.48 3.45-1.66.48-.07.96-.08 1.43-.11zm-26.66 10.95c.6-.1 1.2-.17 1.8-.3.85-.18 1.27.01 1.55.8.15.4.22.85.36 1.26.1.3-.03.44-.3.5-.88.21-1.76.48-2.65.6a8.1 8.1 0 0 1-6.05-1.43 6.42 6.42 0 0 1-2.73-6.19c.47-4.78 4.96-6.53 8.18-6.26 1.1.1 2.15.33 3.2.64.31.1.46.23.34.57-.15.41-.22.85-.37 1.26-.27.74-.7.96-1.5.75a6.9 6.9 0 0 0-2.64-.18c-2.58.33-3.47 2.26-3.44 3.99.02 1.34.5 2.5 1.71 3.29.76.49 1.62.66 2.54.7zm41.2 2.67h-3.53v-10.42h-4.32c0-.8-.02-1.56 0-2.31.02-.32.26-.56.57-.66.28-.09.58-.18.87-.18h10.5l.17.01c0 .78.06 1.56-.02 2.33-.06.54-.58.72-1.08.75-.87.05-1.75.03-2.62.04h-.54v10.44zm-74.77-13.58c.8 0 1.55-.02 2.3.01.88.04 1.31.5 1.31 1.36l.01 8.67v.47h3.67l.47.01c.83.08 1.11.37 1.11 1.17v1.88H1387v-13.57z"/></defs><g><g transform="translate(-1386 -3608)"><use fill="#c6c7cd" xlink:href="#2y49a"/></g></g></svg>