<svg xmlns="http://www.w3.org/2000/svg" xmlns:xlink="http://www.w3.org/1999/xlink" width="41" height="41" viewBox="0 0 41 41"><defs><path id="th5la" d="M1337.15 904.95a6.29 6.29 0 0 1-6.29-6.28 6.29 6.29 0 0 1 12.58 0 6.29 6.29 0 0 1-6.29 6.28zm0-10.99a4.72 4.72 0 1 0 0 9.43 4.72 4.72 0 0 0 0-9.43zm4.72-6.29a4.72 4.72 0 0 0-9.44.02h9.44v-.02zm-11 0a6.29 6.29 0 0 1 12.57.02h9.98l-1.65-9.3a5.36 5.36 0 0 1-3.29-.96 5.55 5.55 0 0 1-2.14-2.88l-21.77 4.08a5.62 5.62 0 0 1-3.82 5.58l.56 3.48h9.55v-.02zm20.06-13.97l-3.02.56a3.99 3.99 0 0 0 3.58 2.57zm-30.96 5.79l.52 3.14c1.49-.59 2.5-2.07 2.52-3.71zm34.47 29.38c0 .43-.35.78-.78.78h-33.01a.78.78 0 0 1-.79-.78v-20.33l-1.56-9.56a.79.79 0 0 1 .63-.9l27.81-5.2a.8.8 0 0 1 .07 0l4.61-.87a.8.8 0 0 1 .92.63l.84 4.73a.87.87 0 0 1 .01.05l2.81 15.82a.78.78 0 0 1-.52.88l-1.04.35zm-33-.79h3.06a3.94 3.94 0 0 0-3.07-3.06zm26.77 0a5.51 5.51 0 0 1 4.66-4.65v-9.5a5.5 5.5 0 0 1-4.91-4.68h-21.87a5.51 5.51 0 0 1-4.66 4.66v9.52a5.51 5.51 0 0 1 4.66 4.65zm4.66 0v-3.06a3.94 3.94 0 0 0-3.06 3.06zm0-18.83h-3.32a3.94 3.94 0 0 0 3.32 3.1zm-31.44 0v3.06a3.94 3.94 0 0 0 3.07-3.06z"/></defs><g><g transform="translate(-1317 -870)"><use fill="#c10101" xlink:href="#th5la"/></g></g></svg>