<svg xmlns="http://www.w3.org/2000/svg" xmlns:xlink="http://www.w3.org/1999/xlink" width="41" height="41" viewBox="0 0 41 41"><defs><path id="91jga" d="M946.3 901.7a6.25 6.25 0 1 1-3.13-11.68.78.78 0 0 1 0-.13v-8.47c0-.12.01-.24.07-.36 2.01-4.5 8.05-9.06 15.7-9.06 7.64 0 13.67 4.56 15.69 9.06.06.13.08.26.06.39v8.59a6.25 6.25 0 0 1 .06 10.8l1.46 2.81a.78.78 0 0 1-.4 1.08l-7.5 3a2.36 2.36 0 0 1-2.3 1.8h-3.15a2.36 2.36 0 0 1-2.36-2.35c0-1.3 1.06-2.34 2.36-2.34h3.16a2.36 2.36 0 0 1 2.1 1.28l6.29-2.51-1.11-2.15c-.56.16-1.16.25-1.77.25h-.14a2.37 2.37 0 0 1-4.59-.78v-10.95a2.37 2.37 0 1 1 4.6-.78h.13c.55 0 1.08.07 1.59.2v-7.86a13 13 0 0 0-4.25-4.8l-1.32 1.29a.79.79 0 0 1-.98.1c-.02-.02-2.33-1.44-7.7-1.44-5.36 0-7.58 1.42-7.6 1.43a.8.8 0 0 1-1-.1l-1.28-1.28a12.99 12.99 0 0 0-4.24 4.8v7.85c.5-.12 1.02-.19 1.56-.19h.13a2.37 2.37 0 0 1 4.6.78v10.95a2.37 2.37 0 1 1-4.6.78zm-4.72-6.25c0 2.6 2.12 4.7 4.73 4.7v-9.39c-2.61 0-4.73 2.1-4.73 4.7zm7.1 6.26c.43 0 .78-.35.78-.78v-10.95a.79.79 0 0 0-.79-.78.79.79 0 0 0-.79.78v10.95c0 .43.36.78.8.78zm27.58-6.26c0-2.58-2.12-4.69-4.73-4.69v9.39c2.6 0 4.73-2.1 4.73-4.7zm-6.3-5.47a.79.79 0 0 0-.8-.78.79.79 0 0 0-.78.78v10.95a.79.79 0 0 0 1.58 0v-10.95zm-18.98-13.47c1.04-.5 3.53-1.38 7.89-1.38 4.4 0 6.93.9 7.99 1.38l.65-.64a17.21 17.21 0 0 0-17.17 0zm11.88 29.89a.79.79 0 0 0-.79.78c0 .43.36.78.79.78h3.15c.44 0 .8-.35.8-.78 0-.2-.1-.4-.24-.55a.78.78 0 0 0-.55-.23z"/></defs><g><g transform="translate(-938 -870)"><use fill="#c10101" xlink:href="#91jga"/></g></g></svg>