<svg xmlns="http://www.w3.org/2000/svg" xmlns:xlink="http://www.w3.org/1999/xlink" width="41" height="27" viewBox="0 0 41 27"><defs><path id="qbkya" d="M589.58 898.3c.27.46.42 1 .42 1.56h3.94v-1.56zm-2.73 4.69a3.16 3.16 0 0 1-2.73-1.56H568.3a3.16 3.16 0 0 1-5.46 0h-4.37a.78.78 0 0 1-.79-.79v-12.49c0-.26.13-.5.35-.65l2.25-1.48 5.43-7.68a.8.8 0 0 1 .64-.33h28.38c.44 0 .79.34.79.78v21.85c0 .44-.35.79-.79.79h-5.15a3.16 3.16 0 0 1-2.73 1.56zm-2.73-4.69H568.3c.26.46.42 1 .42 1.56h14.98c0-.56.15-1.1.42-1.56zm-21.28 0h-3.58v1.56h3.15c0-.56.16-1.1.43-1.56zm31.1-1.56v-17.17h-27.18l-5.28 7.47a.78.78 0 0 1-.2.2l-2.02 1.33v8.17zm-29.16-9.37a.79.79 0 0 1-.45-.14.78.78 0 0 1-.2-1.08l3.31-4.69c.15-.2.39-.33.65-.33h4.57c.43 0 .79.35.79.78 0 .43-.36.78-.79.78h-4.16l-3.08 4.35a.79.79 0 0 1-.64.33zm.79 10.93c-.87 0-1.58.7-1.58 1.56 0 .87.7 1.57 1.58 1.57.86 0 1.57-.7 1.57-1.57 0-.86-.7-1.56-1.57-1.56zm21.28 0c-.87 0-1.58.7-1.58 1.56 0 .87.7 1.57 1.58 1.57.87 0 1.57-.7 1.57-1.57 0-.86-.7-1.56-1.57-1.56z"/></defs><g><g transform="translate(-556 -877)"><use fill="#c10101" xlink:href="#qbkya"/></g></g></svg>